<svg width="234" height="87" viewBox="0 0 234 87" fill="none" xmlns="http://www.w3.org/2000/svg">
<g clip-path="url(#clip0)">
<path d="M8.15133 71.6783V25.5113H14.8747L15.1948 30.89C16.3901 28.9263 17.9696 27.3895 19.9332 26.2796C21.8969 25.1271 24.0953 24.5508 26.5285 24.5508C28.7483 24.5508 30.7973 24.999 32.6756 25.8955C34.5965 26.7919 36.2614 28.0299 37.6701 29.6093C39.0788 31.1888 40.1673 33.0457 40.9357 35.1801C41.7468 37.3145 42.1523 39.6196 42.1523 42.0956C42.1523 44.6141 41.7468 46.962 40.9357 49.1391C40.1246 51.3162 38.9934 53.2158 37.542 54.8379C36.0906 56.4601 34.3831 57.7194 32.4195 58.6158C30.4985 59.5123 28.4068 59.9605 26.1443 59.9605C23.9245 59.9605 21.8969 59.4909 20.0613 58.5518C18.2257 57.6126 16.7103 56.2893 15.515 54.5818V71.6783H8.15133ZM24.9917 53.3012C26.8273 53.3012 28.4708 52.8316 29.9222 51.8924C31.3736 50.9106 32.5048 49.5873 33.3159 47.9225C34.1697 46.2576 34.5965 44.358 34.5965 42.2236C34.5965 40.0892 34.1697 38.2109 33.3159 36.5888C32.5048 34.924 31.3736 33.622 29.9222 32.6828C28.4708 31.701 26.8273 31.2101 24.9917 31.2101C23.1562 31.2101 21.5127 31.701 20.0613 32.6828C18.6099 33.622 17.4573 34.924 16.6036 36.5888C15.7925 38.2109 15.3869 40.0892 15.3869 42.2236C15.3869 44.358 15.7925 46.2576 16.6036 47.9225C17.4573 49.5873 18.6099 50.9106 20.0613 51.8924C21.5127 52.8316 23.1562 53.3012 24.9917 53.3012ZM55.8542 59.9605C54.1466 59.9605 52.5672 59.7044 51.1158 59.1921C49.7071 58.6798 48.4691 57.9541 47.4019 57.015C46.3347 56.0759 45.5023 54.966 44.9047 53.6853C44.3071 52.4047 44.0082 50.996 44.0082 49.4592C44.0082 47.3248 44.5632 45.4679 45.6731 43.8884C46.8257 42.2663 48.4265 41.007 50.4755 40.1106C52.5245 39.2141 54.915 38.7659 57.6471 38.7659C59.1411 38.7659 60.5712 38.9153 61.9372 39.2141C63.3032 39.4702 64.6052 39.8544 65.8432 40.3667V38.2536C65.8432 36.7596 65.5657 35.4576 65.0107 34.3477C64.4558 33.1951 63.6661 32.2987 62.6416 31.6583C61.617 31.018 60.3791 30.6979 58.9277 30.6979C57.3909 30.6979 56.0036 31.1034 54.7656 31.9145C53.5277 32.7255 52.6099 33.8568 52.0122 35.3082L45.2249 33.7714C45.7371 31.8931 46.6549 30.271 47.9782 28.905C49.3442 27.5389 50.9664 26.4717 52.8447 25.7034C54.7656 24.935 56.836 24.5508 59.0558 24.5508C61.1475 24.5508 63.0471 24.8923 64.7546 25.5753C66.5048 26.2583 67.9989 27.2188 69.2369 28.4567C70.4748 29.6947 71.4353 31.1674 72.1183 32.8749C72.8013 34.5825 73.1428 36.4821 73.1428 38.5738V59H66.4194L66.1633 54.5818C65.2669 56.2039 63.9222 57.5059 62.1293 58.4877C60.3364 59.4696 58.2447 59.9605 55.8542 59.9605ZM51.436 49.1391C51.436 50.0782 51.6921 50.932 52.2043 51.7004C52.7166 52.426 53.4209 53.0023 54.3174 53.4292C55.2565 53.8561 56.3451 54.0695 57.583 54.0695C59.1625 54.0695 60.5712 53.728 61.8091 53.045C63.0471 52.362 64.0289 51.4442 64.7546 50.2916C65.4803 49.0964 65.8432 47.7517 65.8432 46.2576V45.4892C64.7333 45.0197 63.5807 44.6568 62.3854 44.4007C61.2329 44.1019 60.0376 43.9525 58.7996 43.9525C56.5799 43.9525 54.787 44.422 53.4209 45.3612C52.0976 46.3003 51.436 47.5596 51.436 49.1391ZM81.4835 72.3187C80.4163 72.3187 79.4131 72.2119 78.474 71.9985C77.5775 71.7851 76.7024 71.4436 75.8487 70.974L77.4495 65.1471C77.919 65.3605 78.4526 65.5313 79.0503 65.6593C79.6479 65.8301 80.2242 65.9155 80.7791 65.9155C82.0598 65.9155 83.1697 65.5526 84.1088 64.8269C85.0906 64.1012 85.9017 62.9273 86.542 61.3052L87.5665 58.6798L73.9277 25.5113H81.9957L91.0242 50.5478L99.2203 25.5113H107.032L92.8171 63.034C91.5792 66.2356 90.0211 68.5835 88.1428 70.0775C86.3072 71.5716 84.0874 72.3187 81.4835 72.3187ZM123.453 59.9605C121.02 59.9605 118.757 59.5336 116.666 58.6798C114.617 57.7834 112.824 56.5454 111.287 54.966C109.75 53.3438 108.555 51.4656 107.701 49.3312C106.847 47.1541 106.42 44.7849 106.42 42.2236C106.42 39.705 106.847 37.3785 107.701 35.2441C108.555 33.067 109.75 31.1888 111.287 29.6093C112.866 27.9872 114.702 26.7492 116.794 25.8955C118.928 24.999 121.233 24.5508 123.709 24.5508C126.142 24.5508 128.383 24.999 130.432 25.8955C132.524 26.7492 134.338 27.9872 135.875 29.6093C137.412 31.1888 138.607 33.0457 139.461 35.1801C140.315 37.3145 140.742 39.6623 140.742 42.2236C140.742 44.7849 140.315 47.1541 139.461 49.3312C138.607 51.4656 137.391 53.3438 135.811 54.966C134.274 56.5454 132.439 57.7834 130.304 58.6798C128.213 59.5336 125.929 59.9605 123.453 59.9605ZM123.581 53.3012C125.417 53.3012 127.06 52.8316 128.511 51.8924C129.963 50.9106 131.094 49.5873 131.905 47.9225C132.759 46.2576 133.186 44.358 133.186 42.2236C133.186 40.0892 132.759 38.2109 131.905 36.5888C131.094 34.924 129.963 33.622 128.511 32.6828C127.06 31.701 125.417 31.2101 123.581 31.2101C121.745 31.2101 120.102 31.701 118.651 32.6828C117.199 33.622 116.047 34.924 115.193 36.5888C114.382 38.2109 113.976 40.0892 113.976 42.2236C113.976 44.358 114.382 46.2576 115.193 47.9225C116.047 49.5873 117.199 50.9106 118.651 51.8924C120.102 52.8316 121.745 53.3012 123.581 53.3012ZM158.953 59.9605C155.965 59.9605 153.361 59.3202 151.141 58.0395C148.964 56.7589 147.256 54.9446 146.018 52.5968C144.823 50.2063 144.225 47.4102 144.225 44.2086V25.5113H151.589V44.3367C151.589 47.1114 152.251 49.3098 153.574 50.932C154.897 52.5114 156.712 53.3012 159.017 53.3012C161.322 53.3012 163.136 52.5114 164.459 50.932C165.783 49.3098 166.444 47.1114 166.444 44.3367V25.5113H173.808V44.2086C173.808 47.3675 173.189 50.1422 171.951 52.5328C170.756 54.8806 169.048 56.7162 166.829 58.0395C164.609 59.3202 161.984 59.9605 158.953 59.9605ZM192.575 59.9605C189.203 59.9605 186.556 59 184.635 57.079C182.714 55.1154 181.754 52.3193 181.754 48.6908V31.4662H175.863V25.5113H181.754V14.1776H189.117V25.5113H198.85V31.4662H189.117V47.9225C189.117 49.7154 189.48 51.1027 190.206 52.0845C190.974 53.0237 192.084 53.4932 193.535 53.4932C194.304 53.4932 195.136 53.3865 196.033 53.1731C196.929 52.917 197.762 52.5755 198.53 52.1486L200.195 57.7194C199.213 58.4024 198.06 58.936 196.737 59.3202C195.456 59.747 194.069 59.9605 192.575 59.9605ZM214.469 59.9605C212.292 59.9605 210.265 59.5976 208.386 58.8719C206.551 58.1462 204.971 57.1217 203.648 55.7984C202.367 54.4324 201.45 52.8316 200.895 50.996L207.554 49.2671C208.109 50.7185 209.005 51.8498 210.243 52.6608C211.481 53.4719 212.911 53.8774 214.533 53.8774C216.198 53.8774 217.564 53.4932 218.632 52.7249C219.699 51.9138 220.232 50.8893 220.232 49.6513C220.232 48.5841 219.805 47.6877 218.952 46.962C218.098 46.2363 216.711 45.7027 214.79 45.3612L212.677 44.977C209.091 44.3367 206.38 43.1841 204.544 41.5193C202.752 39.8544 201.855 37.72 201.855 35.1161C201.855 33.0244 202.389 31.1888 203.456 29.6093C204.523 28.0299 205.996 26.7919 207.874 25.8955C209.752 24.999 211.908 24.5508 214.341 24.5508C216.433 24.5508 218.354 24.9136 220.104 25.6393C221.854 26.365 223.327 27.3895 224.522 28.7129C225.718 30.0362 226.571 31.5943 227.084 33.3872L220.488 34.988C219.976 33.622 219.165 32.5548 218.055 31.7864C216.988 30.9753 215.729 30.5698 214.277 30.5698C212.783 30.5698 211.545 30.954 210.563 31.7224C209.582 32.4481 209.091 33.3872 209.091 34.5398C209.091 35.5216 209.518 36.3327 210.371 36.973C211.268 37.6133 212.762 38.1256 214.854 38.5098L216.967 38.894C220.382 39.4916 223.007 40.6655 224.843 42.4157C226.678 44.1659 227.596 46.343 227.596 48.947C227.596 50.5264 227.276 51.9992 226.636 53.3652C225.995 54.6885 225.077 55.8624 223.882 56.8869C222.73 57.8688 221.342 58.6158 219.72 59.1281C218.141 59.683 216.39 59.9605 214.469 59.9605Z" fill="black"/>
</g>
<defs>
<clipPath id="clip0">
<rect width="234" height="87" fill="white"/>
</clipPath>
</defs>
</svg>
